<?xml version="1.0" encoding="UTF-8" standalone="no"?>
<!DOCTYPE svg PUBLIC "-//W3C//DTD SVG 1.1//EN" "http://www.w3.org/Graphics/SVG/1.1/DTD/svg11.dtd">
<svg width="100%" height="100%" viewBox="0 0 260 512" version="1.1" xmlns="http://www.w3.org/2000/svg" xmlns:xlink="http://www.w3.org/1999/xlink" xml:space="preserve" xmlns:serif="http://www.serif.com/" style="fill-rule:evenodd;clip-rule:evenodd;stroke-linejoin:round;stroke-miterlimit:2;">
    <g transform="matrix(12.3156,0,0,12.3156,-1663.06,-1168.11)">
        <path d="M142.224,116.732C139.495,113.788 136.444,110.986 135.812,110.41C135.745,110.349 135.699,110.308 135.699,110.308C135.505,110.133 135.344,109.92 135.228,109.675C134.898,108.976 135.001,108.148 135.493,107.551C140.419,101.565 146.979,96.177 146.979,96.177L148.473,94.848L151.131,97.837L149.637,99.166C149.637,99.166 146.067,102.345 141.865,107.248C143.079,108.39 144.909,110.155 146.683,112.031C148.07,110.61 149.044,109.657 149.044,109.657L150.473,108.258L153.271,111.116L151.842,112.516C151.842,112.516 150.815,113.521 149.376,114.999L149.432,115.062L149.381,115.103C151.261,117.275 153.035,119.555 154.257,121.61C155.455,123.625 156.115,125.491 156.108,126.93C156.103,132.169 151.848,136.421 146.608,136.421C141.367,136.421 137.112,132.169 137.108,126.929C137.099,125.232 137.827,123.208 139.045,121.152C139.843,119.805 140.846,118.428 141.91,117.115L141.907,117.112L141.957,117.058C142.045,116.949 142.134,116.84 142.224,116.732ZM146.608,120.771C145.076,120.771 143.833,122.015 143.833,123.546C143.833,125.078 145.076,126.321 146.608,126.321C148.139,126.321 149.383,125.078 149.383,123.546C149.383,122.015 148.139,120.771 146.608,120.771ZM149.806,129.952L143.41,129.952L143.41,131.452L149.806,131.452L149.806,129.952Z"/>
    </g>
</svg>
